<svg xmlns="http://www.w3.org/2000/svg" viewBox="0 0 900 700" width="900" height="700" role="img">
  <defs>
    <radialGradient id="g8" cx="67%" cy="43%" r="75%">
      <stop offset="0%" stop-color="#151C36" />
      <stop offset="100%" stop-color="#0B0E1C" />
    </radialGradient>
  </defs>
  <rect width="900" height="700" fill="url(#g8)" />
  <circle cx="819.9" cy="321.3" r="1.2" fill="#F7F1E3" opacity="0.51" /><circle cx="546.9" cy="518.7" r="1.2" fill="#F7F1E3" opacity="0.42" /><circle cx="781.2" cy="557.7" r="1.0" fill="#F7F1E3" opacity="0.30" /><circle cx="178.6" cy="377.7" r="0.8" fill="#F7F1E3" opacity="0.21" /><circle cx="661.1" cy="48.0" r="1.7" fill="#F7F1E3" opacity="0.33" /><circle cx="417.7" cy="389.4" r="1.3" fill="#F7F1E3" opacity="0.60" /><circle cx="103.9" cy="563.8" r="1.0" fill="#F7F1E3" opacity="0.62" /><circle cx="642.0" cy="329.1" r="2.0" fill="#F7F1E3" opacity="0.53" /><circle cx="720.8" cy="661.9" r="2.0" fill="#F7F1E3" opacity="0.56" /><circle cx="295.9" cy="646.1" r="1.3" fill="#F7F1E3" opacity="0.45" /><circle cx="189.5" cy="428.7" r="1.8" fill="#F7F1E3" opacity="0.27" /><circle cx="490.5" cy="441.8" r="0.8" fill="#F7F1E3" opacity="0.57" /><circle cx="454.5" cy="391.4" r="1.2" fill="#F7F1E3" opacity="0.64" /><circle cx="803.7" cy="113.5" r="2.1" fill="#F7F1E3" opacity="0.49" /><circle cx="327.0" cy="195.7" r="2.0" fill="#F7F1E3" opacity="0.43" /><circle cx="279.9" cy="266.4" r="1.8" fill="#F7F1E3" opacity="0.43" /><circle cx="384.6" cy="550.2" r="0.7" fill="#F7F1E3" opacity="0.44" /><circle cx="830.1" cy="390.4" r="2.0" fill="#F7F1E3" opacity="0.52" /><circle cx="371.8" cy="37.6" r="0.9" fill="#F7F1E3" opacity="0.21" /><circle cx="432.1" cy="105.4" r="1.9" fill="#F7F1E3" opacity="0.50" /><circle cx="799.8" cy="92.5" r="1.7" fill="#F7F1E3" opacity="0.65" /><circle cx="430.5" cy="171.8" r="1.2" fill="#F7F1E3" opacity="0.33" /><circle cx="646.4" cy="645.8" r="1.9" fill="#F7F1E3" opacity="0.47" /><circle cx="836.3" cy="468.7" r="2.2" fill="#F7F1E3" opacity="0.64" /><circle cx="155.8" cy="435.7" r="2.1" fill="#F7F1E3" opacity="0.62" /><circle cx="727.2" cy="538.0" r="1.9" fill="#F7F1E3" opacity="0.73" /><circle cx="639.4" cy="585.6" r="1.4" fill="#F7F1E3" opacity="0.30" /><circle cx="147.8" cy="595.8" r="1.5" fill="#F7F1E3" opacity="0.33" /><circle cx="374.8" cy="248.8" r="1.4" fill="#F7F1E3" opacity="0.54" /><circle cx="809.1" cy="210.0" r="2.0" fill="#F7F1E3" opacity="0.55" /><circle cx="106.5" cy="418.9" r="2.2" fill="#F7F1E3" opacity="0.39" /><circle cx="189.0" cy="244.7" r="1.3" fill="#F7F1E3" opacity="0.27" /><circle cx="145.6" cy="508.4" r="1.8" fill="#F7F1E3" opacity="0.66" /><circle cx="631.8" cy="371.6" r="1.8" fill="#F7F1E3" opacity="0.62" /><circle cx="769.9" cy="292.5" r="1.1" fill="#F7F1E3" opacity="0.28" /><circle cx="148.7" cy="547.5" r="1.9" fill="#F7F1E3" opacity="0.44" /><circle cx="523.8" cy="220.6" r="1.6" fill="#F7F1E3" opacity="0.27" /><circle cx="17.4" cy="158.8" r="1.9" fill="#F7F1E3" opacity="0.40" /><circle cx="518.5" cy="94.0" r="1.8" fill="#F7F1E3" opacity="0.26" /><circle cx="382.4" cy="432.6" r="1.0" fill="#F7F1E3" opacity="0.27" /><circle cx="331.6" cy="310.3" r="1.7" fill="#F7F1E3" opacity="0.43" /><circle cx="54.9" cy="314.7" r="0.9" fill="#F7F1E3" opacity="0.50" /><circle cx="807.8" cy="74.2" r="1.1" fill="#F7F1E3" opacity="0.43" /><circle cx="512.5" cy="513.6" r="1.3" fill="#F7F1E3" opacity="0.20" /><circle cx="258.0" cy="276.0" r="1.9" fill="#F7F1E3" opacity="0.40" /><circle cx="599.8" cy="312.1" r="1.2" fill="#F7F1E3" opacity="0.58" /><circle cx="260.1" cy="535.5" r="2.0" fill="#F7F1E3" opacity="0.62" /><circle cx="827.8" cy="444.8" r="1.1" fill="#F7F1E3" opacity="0.35" /><circle cx="358.4" cy="213.0" r="1.0" fill="#F7F1E3" opacity="0.52" /><circle cx="174.3" cy="142.5" r="1.5" fill="#F7F1E3" opacity="0.41" /><circle cx="564.2" cy="587.6" r="1.1" fill="#F7F1E3" opacity="0.70" /><circle cx="683.7" cy="243.5" r="1.3" fill="#F7F1E3" opacity="0.62" /><circle cx="855.2" cy="501.4" r="1.0" fill="#F7F1E3" opacity="0.49" /><circle cx="67.3" cy="471.2" r="1.4" fill="#F7F1E3" opacity="0.73" /><circle cx="375.7" cy="170.3" r="1.9" fill="#F7F1E3" opacity="0.70" />
  <line x1="605.7256944444445" y1="105.32273662551438" x2="605.7256944444445" y2="112.32273662551438" stroke="#D4A24E" stroke-width="1" opacity="0.4" transform="rotate(0 605.7256944444445 299.3227366255144)" /><line x1="605.7256944444445" y1="105.32273662551438" x2="605.7256944444445" y2="112.32273662551438" stroke="#D4A24E" stroke-width="1" opacity="0.4" transform="rotate(15 605.7256944444445 299.3227366255144)" /><line x1="605.7256944444445" y1="105.32273662551438" x2="605.7256944444445" y2="112.32273662551438" stroke="#D4A24E" stroke-width="1" opacity="0.4" transform="rotate(30 605.7256944444445 299.3227366255144)" /><line x1="605.7256944444445" y1="105.32273662551438" x2="605.7256944444445" y2="112.32273662551438" stroke="#D4A24E" stroke-width="1" opacity="0.4" transform="rotate(45 605.7256944444445 299.3227366255144)" /><line x1="605.7256944444445" y1="105.32273662551438" x2="605.7256944444445" y2="112.32273662551438" stroke="#D4A24E" stroke-width="1" opacity="0.4" transform="rotate(60 605.7256944444445 299.3227366255144)" /><line x1="605.7256944444445" y1="105.32273662551438" x2="605.7256944444445" y2="112.32273662551438" stroke="#D4A24E" stroke-width="1" opacity="0.4" transform="rotate(75 605.7256944444445 299.3227366255144)" /><line x1="605.7256944444445" y1="105.32273662551438" x2="605.7256944444445" y2="112.32273662551438" stroke="#D4A24E" stroke-width="1" opacity="0.4" transform="rotate(90 605.7256944444445 299.3227366255144)" /><line x1="605.7256944444445" y1="105.32273662551438" x2="605.7256944444445" y2="112.32273662551438" stroke="#D4A24E" stroke-width="1" opacity="0.4" transform="rotate(105 605.7256944444445 299.3227366255144)" /><line x1="605.7256944444445" y1="105.32273662551438" x2="605.7256944444445" y2="112.32273662551438" stroke="#D4A24E" stroke-width="1" opacity="0.4" transform="rotate(120 605.7256944444445 299.3227366255144)" /><line x1="605.7256944444445" y1="105.32273662551438" x2="605.7256944444445" y2="112.32273662551438" stroke="#D4A24E" stroke-width="1" opacity="0.4" transform="rotate(135 605.7256944444445 299.3227366255144)" /><line x1="605.7256944444445" y1="105.32273662551438" x2="605.7256944444445" y2="112.32273662551438" stroke="#D4A24E" stroke-width="1" opacity="0.4" transform="rotate(150 605.7256944444445 299.3227366255144)" /><line x1="605.7256944444445" y1="105.32273662551438" x2="605.7256944444445" y2="112.32273662551438" stroke="#D4A24E" stroke-width="1" opacity="0.4" transform="rotate(165 605.7256944444445 299.3227366255144)" /><line x1="605.7256944444445" y1="105.32273662551438" x2="605.7256944444445" y2="112.32273662551438" stroke="#D4A24E" stroke-width="1" opacity="0.4" transform="rotate(180 605.7256944444445 299.3227366255144)" /><line x1="605.7256944444445" y1="105.32273662551438" x2="605.7256944444445" y2="112.32273662551438" stroke="#D4A24E" stroke-width="1" opacity="0.4" transform="rotate(195 605.7256944444445 299.3227366255144)" /><line x1="605.7256944444445" y1="105.32273662551438" x2="605.7256944444445" y2="112.32273662551438" stroke="#D4A24E" stroke-width="1" opacity="0.4" transform="rotate(210 605.7256944444445 299.3227366255144)" /><line x1="605.7256944444445" y1="105.32273662551438" x2="605.7256944444445" y2="112.32273662551438" stroke="#D4A24E" stroke-width="1" opacity="0.4" transform="rotate(225 605.7256944444445 299.3227366255144)" /><line x1="605.7256944444445" y1="105.32273662551438" x2="605.7256944444445" y2="112.32273662551438" stroke="#D4A24E" stroke-width="1" opacity="0.4" transform="rotate(240 605.7256944444445 299.3227366255144)" /><line x1="605.7256944444445" y1="105.32273662551438" x2="605.7256944444445" y2="112.32273662551438" stroke="#D4A24E" stroke-width="1" opacity="0.4" transform="rotate(255 605.7256944444445 299.3227366255144)" /><line x1="605.7256944444445" y1="105.32273662551438" x2="605.7256944444445" y2="112.32273662551438" stroke="#D4A24E" stroke-width="1" opacity="0.4" transform="rotate(270 605.7256944444445 299.3227366255144)" /><line x1="605.7256944444445" y1="105.32273662551438" x2="605.7256944444445" y2="112.32273662551438" stroke="#D4A24E" stroke-width="1" opacity="0.4" transform="rotate(285 605.7256944444445 299.3227366255144)" /><line x1="605.7256944444445" y1="105.32273662551438" x2="605.7256944444445" y2="112.32273662551438" stroke="#D4A24E" stroke-width="1" opacity="0.4" transform="rotate(300 605.7256944444445 299.3227366255144)" /><line x1="605.7256944444445" y1="105.32273662551438" x2="605.7256944444445" y2="112.32273662551438" stroke="#D4A24E" stroke-width="1" opacity="0.4" transform="rotate(315 605.7256944444445 299.3227366255144)" /><line x1="605.7256944444445" y1="105.32273662551438" x2="605.7256944444445" y2="112.32273662551438" stroke="#D4A24E" stroke-width="1" opacity="0.4" transform="rotate(330 605.7256944444445 299.3227366255144)" /><line x1="605.7256944444445" y1="105.32273662551438" x2="605.7256944444445" y2="112.32273662551438" stroke="#D4A24E" stroke-width="1" opacity="0.4" transform="rotate(345 605.7256944444445 299.3227366255144)" />
  <circle cx="605.7256944444445" cy="299.3227366255144" r="50" fill="none" stroke="#D4A24E" stroke-width="1" opacity="0.5" /><circle cx="605.7256944444445" cy="299.3227366255144" r="92" fill="none" stroke="#D4A24E" stroke-width="1" opacity="0.41000000000000003" /><circle cx="605.7256944444445" cy="299.3227366255144" r="134" fill="none" stroke="#D4A24E" stroke-width="1" opacity="0.32" /><circle cx="605.7256944444445" cy="299.3227366255144" r="176" fill="none" stroke="#D4A24E" stroke-width="1" opacity="0.22999999999999998" />
  <circle cx="605.7256944444445" cy="299.3227366255144" r="20" fill="#0B0E1C" stroke="#D4A24E" stroke-width="1.8" />
  <circle cx="605.7256944444445" cy="299.3227366255144" r="6" fill="#E8C170" />
</svg>